<svg xmlns="http://www.w3.org/2000/svg" xmlns:xlink="http://www.w3.org/1999/xlink" viewBox="0 0 211.42 503.13"><defs><style>.cls-1{fill:none;}.cls-2{clip-path:url(#clip-path);}.cls-3{fill:#739169;}.cls-4{clip-path:url(#clip-path-2);}.cls-5{fill:#a2c29b;}.cls-6{fill:#445e53;}.cls-7{clip-path:url(#clip-path-3);}.cls-8{fill:#263630;}.cls-9{clip-path:url(#clip-path-4);}</style><clipPath id="clip-path" transform="translate(14.52 -5.94)"><rect class="cls-1" x="43.8" width="160.29" height="487.2" transform="translate(247.89 487.2) rotate(180)"/></clipPath><clipPath id="clip-path-2" transform="translate(14.52 -5.94)"><path class="cls-1" d="M55.62,497.56c9.46,8.67,18.59,2.12,20.74.58s16.89-.44,22.8-4.67,8.68-8.13,14.59-12.36,16.5-5.33,27.85-16.72,53-46.64,44.65-62.32S126,412.25,115.53,421.41s-20,12.88-32.33,18.44-19.12,6.6-23.78,18.81c-5.73,15-12.9,13.72-12.73,24.17A17.21,17.21,0,0,0,55.62,497.56Z"/></clipPath><clipPath id="clip-path-3" transform="translate(14.52 -5.94)"><path class="cls-1" d="M43.94,161.38c12.47,3,17.32-7.1,18.46-9.48S77,143.38,80.13,136.83,83.82,125.52,87,119s11.9-12.62,16.37-28.07,24-66.37,9.12-76.11-47.87,37.91-52.67,51S48.41,86.74,40.32,97.51s-13.58,15-11.78,27.94c2.21,15.93-4.71,18.24.47,27.32A17.22,17.22,0,0,0,43.94,161.38Z"/></clipPath><clipPath id="clip-path-4" transform="translate(14.52 -5.94)"><path class="cls-1" d="M43.24,484.57c18.75-1.81,20.58-18.2,21-22.06s16.1-18.85,17.28-29.45-.35-17.46.84-28.06,10.39-23.24,9.12-46.81,1.11-103.58-24.16-109.9S19.31,324,19,344.43,13.36,379,7.36,397.81s-11.57,27.35-2.82,44.42c10.76,21,2.29,27.55,13.85,37.62S43.24,484.57,43.24,484.57Z"/></clipPath></defs><title>Recurso 2</title><g id="Capa_2" data-name="Capa 2"><g id="OBJECTS"><g class="cls-2"><path class="cls-3" d="M55.62,497.56c9.46,8.67,18.59,2.12,20.74.58s16.89-.44,22.8-4.67,8.68-8.13,14.59-12.36,16.5-5.33,27.85-16.72,53-46.64,44.65-62.32S126,412.25,115.53,421.41s-20,12.88-32.33,18.44-19.12,6.6-23.78,18.81c-5.73,15-12.9,13.72-12.73,24.17A17.21,17.21,0,0,0,55.62,497.56Z" transform="translate(14.52 -5.94)"/><g class="cls-4"><polygon class="cls-5" points="153.16 464.95 117.27 450.45 105.17 458.87 140.68 474.69 153.16 464.95"/><polyline class="cls-5" points="87.9 470.72 122.32 485.74 117.31 490.12 83.31 473.48 87.9 470.72"/><path class="cls-5" d="M82.6,470.83l0-34.15-21.66,3.16s2,35.87,4.91,41.7h0l15.91-10.09h0" transform="translate(14.52 -5.94)"/><polygon class="cls-5" points="176.9 442.69 146.33 431.21 163.7 420.6 193.59 427.83 176.9 442.69"/><polygon class="cls-5" points="203.99 393.56 172.06 415.4 171.55 387.9 190.68 380.5 203.99 393.56"/><polyline class="cls-5" points="132.61 441.04 167.83 456.81 161.13 462.13 124.32 446.72 132.61 441.04"/><polygon class="cls-5" points="140.77 401.81 143.1 434.05 129.14 443.53 128.48 406.67 140.77 401.81"/><polygon class="cls-5" points="115.61 418.79 117.27 450.45 106.91 459.46 106.67 422.83 115.61 418.79"/></g><path class="cls-6" d="M36.34,501l.06.12a1.16,1.16,0,0,0,1.6.31c24.5-16.39,146-96.55,147.23-97.35a1.15,1.15,0,0,0-1.27-1.92c-1.22.81-122.73,81-147.24,97.36A1.14,1.14,0,0,0,36.34,501Z" transform="translate(14.52 -5.94)"/><path class="cls-3" d="M43.94,161.38c12.47,3,17.32-7.1,18.46-9.48S77,143.38,80.13,136.83,83.82,125.52,87,119s11.9-12.62,16.37-28.07,24-66.37,9.12-76.11-47.87,37.91-52.67,51S48.41,86.74,40.32,97.51s-13.58,15-11.78,27.94c2.21,15.93-4.71,18.24.47,27.32A17.22,17.22,0,0,0,43.94,161.38Z" transform="translate(14.52 -5.94)"/><g class="cls-7"><polygon class="cls-5" points="118.38 92.09 79.95 96.67 73.39 109.87 112.13 106.63 118.38 92.09"/><polyline class="cls-5" points="63.96 128.57 101.36 125.16 99.08 131.41 61.27 133.2 63.96 128.57"/><path class="cls-5" d="M54.72,125,38.25,95l-17.46,13.2s19.06,30.45,24.38,34.18h0l9.09-16.5h0" transform="translate(14.52 -5.94)"/><polygon class="cls-5" points="128.46 61.15 96.14 65.81 106.26 48.15 135.94 40.09 128.46 61.15"/><polygon class="cls-5" points="128.55 5.04 111.08 39.56 97.39 15.71 110.6 0 128.55 5.04"/><polyline class="cls-5" points="88.85 81.03 127.31 77.89 124.01 85.78 84.32 90 88.85 81.03"/><polygon class="cls-5" points="77.11 42.72 94.68 69.84 87.01 84.89 68.69 52.9 77.11 42.72"/><polygon class="cls-5" points="63.24 69.71 79.95 96.67 75.2 109.55 57.35 77.56 63.24 69.71"/></g><path class="cls-6" d="M28.71,173.7l.11.07a1.15,1.15,0,0,0,1.55-.5C44,147.11,111.84,18.35,112.52,17.05a1.15,1.15,0,1,0-2-1.07c-.68,1.3-68.58,130.07-82.16,156.24A1.15,1.15,0,0,0,28.71,173.7Z" transform="translate(14.52 -5.94)"/><path class="cls-6" d="M63.61,430.37c2.1-11.18-20.77-30.87-20.77-30.87s9.48,37.78,20.77,30.87" transform="translate(14.52 -5.94)"/><path class="cls-6" d="M61,444.73c1.64-8.71-16.17-24-16.17-24s7.38,29.42,16.17,24" transform="translate(14.52 -5.94)"/><path class="cls-6" d="M69.59,414.27c4.12-6.77-23.77-40.51-23.77-40.51s3.45,20.32,9.33,30.62c8,14.08,11.4,12.85,14.44,9.89" transform="translate(14.52 -5.94)"/><path class="cls-6" d="M76.47,399.79c4.49-8-10.17-28.67-26.35-38.22,0,0,9.73,35.94,26.35,38.22" transform="translate(14.52 -5.94)"/><path class="cls-6" d="M83.6,383.47c4.27-9.19-22.47-43.15-22.47-43.15s3.29,24,9.08,32.47S80,386.54,83.6,383.47" transform="translate(14.52 -5.94)"/><path class="cls-6" d="M91.78,366.35c3.35-7.82-.72-11.85-8.76-26.53s-10.54-20.21-10.54-20.21,1.66,24.27,5.83,33.68,7,19.08,10.35,16.64" transform="translate(14.52 -5.94)"/><path class="cls-6" d="M84.56,383.42c6,6.08,7.74,9.16,24.37,7.29s23.17-4.34,23.17-4.34-20.59-8.29-30.87-8-17.64,1-16.67,5.05" transform="translate(14.52 -5.94)"/><path class="cls-6" d="M77.87,400.71c5.4,5.39,7.06,8.21,21.43,5.32s20-5.69,20-5.69-18.18-6.52-27.1-5.56-15.28,2.12-14.3,5.93" transform="translate(14.52 -5.94)"/><path class="cls-6" d="M71,417.28c5.31,3.92,7,6,19.78,3s17.54-5.58,17.54-5.58-16.93-4.09-24.91-2.84S69.76,414.34,71,417.28" transform="translate(14.52 -5.94)"/><path class="cls-6" d="M64.37,428.39c4.77,4,6.27,6.15,18.51,4s16.94-4.17,16.94-4.17S84.07,423.33,76.45,424s-13,1.53-12.08,4.38" transform="translate(14.52 -5.94)"/><path class="cls-6" d="M61.46,444c5.07,2.76,6.83,4.38,17.49.18s14.53-6.95,14.53-6.95-15.16-1.51-21.92.54-11.49,3.83-10.1,6.23" transform="translate(14.52 -5.94)"/><path class="cls-6" d="M93.85,368.05c6.14,5.18,6.76,7.42,23.19,6.53s27.12-4.15,27.12-4.15-25-6.07-35.24-6.22-16.18.48-15.07,3.84" transform="translate(14.52 -5.94)"/><path class="cls-6" d="M100.62,353c6.14,5.18,6.76,7.43,23.19,6.53s27.12-4.15,27.12-4.15-25-6.06-35.24-6.22-16.18.48-15.07,3.84" transform="translate(14.52 -5.94)"/><path class="cls-6" d="M110.28,337.39c6.15,5.19,3.69,8.83,20.12,7.94s27.11-5.68,27.11-5.68-21.95-5.94-32.15-6.1-16.18.48-15.08,3.84" transform="translate(14.52 -5.94)"/><path class="cls-6" d="M118.07,324.55c6.14,5.18,6.76,7.42,23.19,6.53s21.18-6.74,21.18-6.74-19.1-3.47-29.3-3.63-16.18.48-15.07,3.84" transform="translate(14.52 -5.94)"/><path class="cls-6" d="M128.75,311.16c6.14,5.18,4.41,6.29,20.84,5.4s20.85-3.91,20.85-3.91-13.77-6.14-24-6.3-18.84,1.45-17.73,4.81" transform="translate(14.52 -5.94)"/><path class="cls-6" d="M139.27,299.07c5.77,4.86,4.14,5.91,19.55,5.07s19.56-3.66,19.56-3.66-12.91-5.77-22.47-5.92-17.68,1.36-16.64,4.51" transform="translate(14.52 -5.94)"/><path class="cls-6" d="M152.35,289.17c4.71,4,3.38,4.83,16,4.14s16-3,16-3-10.55-4.71-18.36-4.83-14.45,1.1-13.6,3.68" transform="translate(14.52 -5.94)"/><path class="cls-6" d="M160.68,279.22c4.71,4,3.38,4.83,16,4.14s16-3,16-3-10.55-4.71-18.37-4.83-14.44,1.1-13.59,3.68" transform="translate(14.52 -5.94)"/><path class="cls-6" d="M99.2,354.77c4.49-8,3.91-17.52-5.38-32s-11-17.12-11-17.12,3.29,25.53,7.19,35.22c4.49,11.14,4.89,16.47,9.19,13.86" transform="translate(14.52 -5.94)"/><path class="cls-6" d="M109,336.75c6.63-12.63-11.5-42.2-11.5-42.2s-1.1,19.86,2.31,28.33c4.49,11.15,4.89,16.47,9.19,13.87" transform="translate(14.52 -5.94)"/><path class="cls-6" d="M117.74,322.53c6.62-12.63-11.5-42.21-11.5-42.21s-1.1,19.87,2.31,28.34c4.48,11.15,4.88,16.47,9.19,13.87" transform="translate(14.52 -5.94)"/><path class="cls-6" d="M127.22,312.36c6.63-12.63-7.12-41.23-7.12-41.23s.37,17.7.83,26.82c.65,13.07,2,17,6.29,14.41" transform="translate(14.52 -5.94)"/><path class="cls-6" d="M136.22,302.68c9.48-10.65-1-43.73-1-43.73s-5.87,19-4.61,28.06c1.66,11.9.76,17.16,5.57,15.67" transform="translate(14.52 -5.94)"/><path class="cls-6" d="M148.42,289.89c7-8.35-.59-34.14-.59-34.14s-4.37,14.86-3.47,21.92c1.19,9.28.52,13.39,4.06,12.22" transform="translate(14.52 -5.94)"/><path class="cls-6" d="M161.23,281.49c7-8.34-.59-34.13-.59-34.13s-4.37,14.85-3.46,21.91c1.19,9.29.51,13.39,4,12.22" transform="translate(14.52 -5.94)"/><path class="cls-6" d="M172.09,272.26c7-8.34,3.64-24.14,3.64-24.14s-5.5,8.05-6.77,15.06c-2.35,13-.41,10.26,3.13,9.08" transform="translate(14.52 -5.94)"/><path class="cls-6" d="M176.5,272.31c10.89-.35,20.4-13.41,20.4-13.41s-13.7-1.11-18.35,4.28c-6.12,7.09-5.29,7.28-2.05,9.13" transform="translate(14.52 -5.94)"/><path class="cls-8" d="M48.91,481.08a1.58,1.58,0,0,0,3.11,0c.1-.52,10.31-53.12,45.17-120.52C131.93,293.37,175.54,271.18,176,271a1.58,1.58,0,1,0-1.4-2.84c-.45.22-45,22.87-80.19,91C59.29,427,49,480,48.91,480.49A1.47,1.47,0,0,0,48.91,481.08Z" transform="translate(14.52 -5.94)"/><path class="cls-6" d="M43.18,280.13C42.25,268.79,15,255.84,15,255.84s19.12,33.94,28.19,24.29" transform="translate(14.52 -5.94)"/><path class="cls-6" d="M44.49,294.66c-.72-8.83-21.94-18.91-21.94-18.91s14.88,26.42,21.94,18.91" transform="translate(14.52 -5.94)"/><path class="cls-6" d="M44.69,263c2.19-7.62-33.63-32.79-33.63-32.79s8.7,18.69,17.09,27.07c11.47,11.46,14.39,9.39,16.54,5.72" transform="translate(14.52 -5.94)"/><path class="cls-6" d="M47.5,247.24c2.21-8.93-17.37-25-35.5-29.91,0,0,18.87,32.1,35.5,29.91" transform="translate(14.52 -5.94)"/><path class="cls-6" d="M50.07,229.62c1.69-10-33.06-35.69-33.06-35.69s9.5,22.25,17.33,28.92,13,10.69,15.73,6.77" transform="translate(14.52 -5.94)"/><path class="cls-6" d="M53.44,211c1.17-8.43-3.82-11.25-15.46-23.28S22.49,171,22.49,171s8,23,14.51,30.94,11.74,16.57,14.37,13.33" transform="translate(14.52 -5.94)"/><path class="cls-6" d="M51,229.32c7.35,4.28,9.89,6.79,25.44.59s21.19-10.3,21.19-10.3-22-2.56-31.89.43S49,225.65,51,229.32" transform="translate(14.52 -5.94)"/><path class="cls-6" d="M49.1,247.76c6.62,3.77,9,6.06,22.07-.53s17.76-10.75,17.76-10.75-19.25-1.5-27.61,1.79-14.17,6.07-12.22,9.49" transform="translate(14.52 -5.94)"/><path class="cls-6" d="M46.8,265.57c6.16,2.38,8.39,4,19.86-2.37s15.46-10,15.46-10-17.42.52-24.78,3.84-12.47,6-10.54,8.54" transform="translate(14.52 -5.94)"/><path class="cls-6" d="M43.38,278c5.67,2.64,7.67,4.28,18.92-1s15.24-8.49,15.24-8.49-16.49-.6-23.66,2.07-12.17,4.91-10.5,7.41" transform="translate(14.52 -5.94)"/><path class="cls-6" d="M44.71,293.88c5.62,1.31,7.74,2.42,16.91-4.45S73.8,278.89,73.8,278.89s-15,2.55-21,6.31-10.07,6.73-8.09,8.68" transform="translate(14.52 -5.94)"/><path class="cls-6" d="M55.88,212c7.3,3.37,8.49,5.38,24.1.17S105,201.05,105,201.05s-25.75.76-35.63,3.3S53.93,209.09,55.88,212" transform="translate(14.52 -5.94)"/><path class="cls-6" d="M58.44,195.73c7.3,3.38,8.48,5.38,24.09.18s25.07-11.17,25.07-11.17S81.84,185.5,72,188s-15.49,4.74-13.53,7.69" transform="translate(14.52 -5.94)"/><path class="cls-6" d="M63.64,178.13c7.3,3.38,5.89,7.55,21.5,2.34s24.65-12.63,24.65-12.63-22.74.07-32.62,2.61-15.48,4.73-13.53,7.68" transform="translate(14.52 -5.94)"/><path class="cls-6" d="M67.76,163.68c7.3,3.38,8.48,5.39,24.09.18s18.65-12.09,18.65-12.09S91.16,153.46,81.29,156s-15.49,4.74-13.53,7.68" transform="translate(14.52 -5.94)"/><path class="cls-6" d="M74.52,148c7.3,3.38,5.92,4.91,21.53-.29s19.08-9.27,19.08-9.27-14.9-2.29-24.77.25S72.57,145,74.52,148" transform="translate(14.52 -5.94)"/><path class="cls-6" d="M81.48,133.52c6.85,3.17,5.55,4.6,20.2-.28s17.9-8.7,17.9-8.7-14-2.15-23.24.24-16.69,6-14.86,8.74" transform="translate(14.52 -5.94)"/><path class="cls-6" d="M91.49,120.51c5.59,2.59,4.53,3.77,16.5-.22s14.63-7.11,14.63-7.11-11.42-1.76-19,.19S90,118.25,91.49,120.51" transform="translate(14.52 -5.94)"/><path class="cls-6" d="M96.89,108.72c5.59,2.59,4.54,3.76,16.5-.23S128,101.38,128,101.38s-11.42-1.75-19,.19-13.64,4.89-12.14,7.15" transform="translate(14.52 -5.94)"/><path class="cls-6" d="M57.54,197.82c2.21-8.94-.85-17.93-13.63-29.41s-15.13-13.6-15.13-13.6S38.7,178.56,45,186.87c7.27,9.57,9.06,14.6,12.52,10.95" transform="translate(14.52 -5.94)"/><path class="cls-6" d="M62.25,177.84C65.3,163.91,40,140.18,40,140.18s4.19,19.45,9.71,26.72c7.27,9.57,9.06,14.59,12.53,10.94" transform="translate(14.52 -5.94)"/><path class="cls-6" d="M66.91,161.82c3-13.93-22.24-37.67-22.24-37.67s4.19,19.45,9.71,26.73c7.27,9.57,9.06,14.59,12.53,10.94" transform="translate(14.52 -5.94)"/><path class="cls-6" d="M73.37,149.51c3.06-13.93-17.75-37.88-17.75-37.88s5,17,7.88,25.65c4.07,12.43,6.4,15.88,9.87,12.23" transform="translate(14.52 -5.94)"/><path class="cls-6" d="M79.49,137.8C85.83,125,67,95.88,67,95.88s-.64,19.88,3,28.28c4.74,11,5.26,16.35,9.5,13.64" transform="translate(14.52 -5.94)"/><path class="cls-6" d="M87.88,122.24c4.56-9.9-9.58-32.76-9.58-32.76s-.29,15.48,2.44,22c3.6,8.64,4,12.78,7.14,10.71" transform="translate(14.52 -5.94)"/><path class="cls-6" d="M98,110.76c4.55-9.9-9.59-32.76-9.59-32.76s-.29,15.48,2.45,22c3.6,8.64,4,12.78,7.14,10.71" transform="translate(14.52 -5.94)"/><path class="cls-6" d="M106.06,99c4.56-9.89-2.86-24.24-2.86-24.24S100,84,100.64,91.06c1.17,13.19,2.31,10,5.42,7.93" transform="translate(14.52 -5.94)"/><path class="cls-6" d="M110.33,97.88c10.41-3.22,16.13-18.32,16.13-18.32s-13.5,2.54-16.57,9c-4,8.45-3.18,8.41.44,9.35" transform="translate(14.52 -5.94)"/><path class="cls-8" d="M42.38,332.92a1.58,1.58,0,0,0,3-.82c0-.53-4.07-54,11.75-128.17C72.9,130,109.1,97,109.46,96.72a1.58,1.58,0,0,0-2.1-2.37C107,94.68,70,128.29,54,203.27,38.1,278,42.18,331.82,42.23,332.36A1.5,1.5,0,0,0,42.38,332.92Z" transform="translate(14.52 -5.94)"/><path class="cls-3" d="M43.24,484.57c18.75-1.81,20.58-18.2,21-22.06s16.1-18.85,17.28-29.45-.35-17.46.84-28.06,10.39-23.24,9.12-46.81,1.11-103.58-24.16-109.9S19.31,324,19,344.43,13.36,379,7.36,397.81s-11.57,27.35-2.82,44.42c10.76,21,2.29,27.55,13.85,37.62S43.24,484.57,43.24,484.57Z" transform="translate(14.52 -5.94)"/><g class="cls-9"><polygon class="cls-5" points="110.19 361.87 59.13 386.79 56.42 408.26 108.55 385.04 110.19 361.87"/><polyline class="cls-5" points="52.39 438.74 102.59 415.93 102.45 425.7 50.9 446.46 52.39 438.74"/><path class="cls-5" d="M40.58,428.89,3.29,395.38l-17.81,26.73s41.13,33,50.31,35.59h0l4.61-27.26h0" transform="translate(14.52 -5.94)"/><polygon class="cls-5" points="109.2 314.11 66.66 336.19 72.14 306.82 109.39 281.31 109.2 314.11"/><polygon class="cls-5" points="82.21 236.31 74.68 292.59 44.17 266.15 54.88 238 82.21 236.31"/><polyline class="cls-5" points="63.92 360.82 115.7 337.87 114.94 350.41 61.97 375.43 63.92 360.82"/><polygon class="cls-5" points="29.13 313.39 66.59 342.5 63.22 367.05 22.37 331.57 29.13 313.39"/><polygon class="cls-5" points="22.95 357.51 59.13 386.79 58.78 406.95 18.58 371.23 22.95 357.51"/></g><path class="cls-6" d="M28.09,509l.19,0a1.68,1.68,0,0,0,1.9-1.43c6.18-42.82,38-254.1,38.36-256.23a1.69,1.69,0,0,0-3.34-.5C64.88,253,33,464.31,26.85,507.14A1.67,1.67,0,0,0,28.09,509Z" transform="translate(14.52 -5.94)"/></g></g></g></svg>