<svg id="OBJECTS" xmlns="http://www.w3.org/2000/svg" xmlns:xlink="http://www.w3.org/1999/xlink" width="160.29" height="487.2" viewBox="0 0 160.29 487.2">
  <defs>
    <clipPath id="clip-path">
      <rect id="Rectángulo_28" data-name="Rectángulo 28" width="160.29" height="487.2" fill="none"/>
    </clipPath>
    <clipPath id="clip-path-2">
      <path id="Trazado_32" data-name="Trazado 32" d="M55.62,401.532c9.46-8.67,18.59-2.12,20.74-.58s16.89.44,22.8,4.67,8.68,8.13,14.59,12.36,16.5,5.33,27.85,16.72,53,46.64,44.65,62.32-60.25-10.18-70.72-19.34-20-12.88-32.33-18.44-19.12-6.6-23.78-18.81c-5.73-15-12.9-13.72-12.73-24.17A17.21,17.21,0,0,1,55.62,401.532Z" transform="translate(-46.687 -397.131)" fill="none"/>
    </clipPath>
    <clipPath id="clip-path-3">
      <path id="Trazado_43" data-name="Trazado 43" d="M43.94,14.069c12.47-3,17.32,7.1,18.46,9.48s14.6,8.52,17.73,15.07,3.69,11.31,6.87,17.83,11.9,12.62,16.37,28.07,24,66.37,9.12,76.11-47.87-37.91-52.67-51-11.41-20.92-19.5-31.69S26.74,62.939,28.54,50c2.21-15.93-4.71-18.24.47-27.32a17.22,17.22,0,0,1,14.93-8.61Z" transform="translate(-27.038 -13.517)" fill="none"/>
    </clipPath>
    <clipPath id="clip-path-4">
      <path id="Trazado_112" data-name="Trazado 112" d="M43.24,249.364c18.75,1.81,20.58,18.2,21,22.06s16.1,18.85,17.28,29.45-.35,17.46.84,28.06,10.39,23.24,9.12,46.81,1.11,103.58-24.16,109.9S19.31,409.934,19,389.5s-5.64-34.57-11.64-53.38-11.57-27.35-2.82-44.42c10.76-21,2.29-27.55,13.85-37.62S43.24,249.364,43.24,249.364Z" transform="translate(-0.005 -247.944)" fill="none"/>
    </clipPath>
  </defs>
  <g id="Grupo_4" data-name="Grupo 4" clip-path="url(#clip-path)">
    <path id="Trazado_23" data-name="Trazado 23" d="M55.62,401.532c9.46-8.67,18.59-2.12,20.74-.58s16.89.44,22.8,4.67,8.68,8.13,14.59,12.36,16.5,5.33,27.85,16.72,53,46.64,44.65,62.32-60.25-10.18-70.72-19.34-20-12.88-32.33-18.44-19.12-6.6-23.78-18.81c-5.73-15-12.9-13.72-12.73-24.17A17.21,17.21,0,0,1,55.62,401.532Z" transform="translate(-43.8 -411.892)" fill="#739169"/>
    <g id="Grupo_1" data-name="Grupo 1" transform="translate(2.887 -14.761)" clip-path="url(#clip-path-2)">
      <path id="Trazado_24" data-name="Trazado 24" d="M153.16,460.19l-35.89,14.5-12.1-8.42,35.51-15.82Z" transform="translate(-61.207 -429.119)" fill="#a2c29b"/>
      <path id="Trazado_25" data-name="Trazado 25" d="M87.9,490.12l34.42-15.02-5.01-4.38-34,16.64,4.59,2.76" transform="translate(-61.207 -464.819)" fill="#a2c29b"/>
      <path id="Trazado_26" data-name="Trazado 26" d="M82.6,447.39v34.15l-21.66-3.16s2-35.87,4.91-41.7h0l15.91,10.09h0" transform="translate(-46.687 -416.259)" fill="#a2c29b"/>
      <path id="Trazado_27" data-name="Trazado 27" d="M176.9,420.6l-30.57,11.48,17.37,10.61,29.89-7.23Z" transform="translate(-61.207 -367.269)" fill="#a2c29b"/>
      <path id="Trazado_28" data-name="Trazado 28" d="M203.99,402.34,172.06,380.5l-.51,27.5,19.13,7.4Z" transform="translate(-61.207 -299.879)" fill="#a2c29b"/>
      <path id="Trazado_29" data-name="Trazado 29" d="M132.61,462.13l35.22-15.77-6.7-5.32-36.81,15.41,8.29,5.68" transform="translate(-61.207 -407.149)" fill="#a2c29b"/>
      <path id="Trazado_30" data-name="Trazado 30" d="M140.77,443.53l2.33-32.24-13.96-9.48-.66,36.86Z" transform="translate(-61.207 -349.319)" fill="#a2c29b"/>
      <path id="Trazado_31" data-name="Trazado 31" d="M115.61,459.46l1.66-31.66-10.36-9.01-.24,36.63Z" transform="translate(-61.207 -382.229)" fill="#a2c29b"/>
    </g>
    <path id="Trazado_33" data-name="Trazado 33" d="M36.34,402.594l.06-.12a1.16,1.16,0,0,1,1.6-.31c24.5,16.39,146,96.55,147.23,97.35a1.151,1.151,0,0,1-1.27,1.92c-1.22-.81-122.73-81-147.24-97.36A1.14,1.14,0,0,1,36.34,402.594Z" transform="translate(-43.8 -416.393)" fill="#445e53"/>
    <path id="Trazado_34" data-name="Trazado 34" d="M43.94,14.069c12.47-3,17.32,7.1,18.46,9.48s14.6,8.52,17.73,15.07,3.69,11.31,6.87,17.83,11.9,12.62,16.37,28.07,24,66.37,9.12,76.11-47.87-37.91-52.67-51-11.41-20.92-19.5-31.69S26.74,62.939,28.54,50c2.21-15.93-4.71-18.24.47-27.32a17.22,17.22,0,0,1,14.93-8.61Z" transform="translate(-43.8 311.751)" fill="#739169"/>
    <g id="Grupo_2" data-name="Grupo 2" transform="translate(-16.762 325.268)" clip-path="url(#clip-path-3)">
      <path id="Trazado_35" data-name="Trazado 35" d="M118.38,109.87l-38.43-4.58-6.56-13.2,38.74,3.24Z" transform="translate(-41.558 -45.968)" fill="#a2c29b"/>
      <path id="Trazado_36" data-name="Trazado 36" d="M63.96,129.79l37.4,3.41-2.28-6.25-37.81-1.79,2.69,4.63" transform="translate(-41.558 -102.368)" fill="#a2c29b"/>
      <path id="Trazado_37" data-name="Trazado 37" d="M54.72,112.38l-16.47,30-17.46-13.2S39.85,98.73,45.17,95h0l9.09,16.5h0" transform="translate(-27.038 -75.448)" fill="#a2c29b"/>
      <path id="Trazado_38" data-name="Trazado 38" d="M128.46,44.75,96.14,40.09l10.12,17.66,29.68,8.06Z" transform="translate(-41.558 50.092)" fill="#a2c29b"/>
      <path id="Trazado_39" data-name="Trazado 39" d="M128.55,34.52,111.08,0,97.39,23.85,110.6,39.56Z" transform="translate(-41.558 116.432)" fill="#a2c29b"/>
      <path id="Trazado_40" data-name="Trazado 40" d="M88.85,86.86,127.31,90l-3.3-7.89L84.32,77.89l4.53,8.97" transform="translate(-41.558 -11.898)" fill="#a2c29b"/>
      <path id="Trazado_41" data-name="Trazado 41" d="M77.11,84.89,94.68,57.77,87.01,42.72,68.69,74.71Z" transform="translate(-41.558 28.382)" fill="#a2c29b"/>
      <path id="Trazado_42" data-name="Trazado 42" d="M63.24,109.55,79.95,82.59,75.2,69.71,57.35,101.7Z" transform="translate(-41.558 -23.268)" fill="#a2c29b"/>
    </g>
    <path id="Trazado_44" data-name="Trazado 44" d="M28.71,15.394l.11-.07a1.15,1.15,0,0,1,1.55.5c13.63,26.16,81.47,154.92,82.15,156.22a1.15,1.15,0,1,1-2,1.07c-.68-1.3-68.58-130.07-82.16-156.24a1.15,1.15,0,0,1,.35-1.48Z" transform="translate(-43.8 298.106)" fill="#445e53"/>
    <path id="Trazado_45" data-name="Trazado 45" d="M63.61,400.344c2.1,11.18-20.77,30.87-20.77,30.87s9.48-37.78,20.77-30.87" transform="translate(-43.8 -343.514)" fill="#445e53"/>
    <path id="Trazado_46" data-name="Trazado 46" d="M61,421.4c1.64,8.71-16.17,24-16.17,24s7.38-29.42,16.17-24" transform="translate(-43.8 -378.926)" fill="#445e53"/>
    <path id="Trazado_47" data-name="Trazado 47" d="M69.59,375.651c4.12,6.77-23.77,40.51-23.77,40.51s3.45-20.32,9.33-30.62c8-14.08,11.4-12.85,14.44-9.89" transform="translate(-43.8 -302.721)" fill="#445e53"/>
    <path id="Trazado_48" data-name="Trazado 48" d="M76.47,361.57c4.49,8-10.17,28.67-26.35,38.22,0,0,9.73-35.94,26.35-38.22" transform="translate(-43.8 -274.16)" fill="#445e53"/>
    <path id="Trazado_49" data-name="Trazado 49" d="M83.6,341.2c4.27,9.19-22.47,43.15-22.47,43.15s3.29-24,9.08-32.47S80,338.132,83.6,341.2" transform="translate(-43.8 -237.472)" fill="#445e53"/>
    <path id="Trazado_50" data-name="Trazado 50" d="M91.78,323.572c3.35,7.82-.72,11.85-8.76,26.53s-10.54,20.21-10.54,20.21,1.66-24.27,5.83-33.68,7-19.08,10.35-16.64" transform="translate(-43.8 -202.722)" fill="#445e53"/>
    <path id="Trazado_51" data-name="Trazado 51" d="M84.56,386.2c6-6.08,7.74-9.16,24.37-7.29s23.17,4.34,23.17,4.34-20.59,8.29-30.87,8-17.64-1-16.67-5.05" transform="translate(-43.8 -282.416)" fill="#445e53"/>
    <path id="Trazado_52" data-name="Trazado 52" d="M77.87,401.158c5.4-5.39,7.06-8.21,21.43-5.32s20,5.69,20,5.69-18.18,6.52-27.1,5.56-15.28-2.12-14.3-5.93" transform="translate(-43.8 -314.668)" fill="#445e53"/>
    <path id="Trazado_53" data-name="Trazado 53" d="M71,416.049c5.31-3.92,7-6,19.78-3s17.54,5.58,17.54,5.58-16.93,4.09-24.91,2.84-13.65-2.48-12.41-5.42" transform="translate(-43.8 -346.129)" fill="#445e53"/>
    <path id="Trazado_54" data-name="Trazado 54" d="M64.37,428.786c4.77-4,6.27-6.15,18.51-4s16.94,4.17,16.94,4.17-15.75,4.89-23.37,4.22-13-1.53-12.08-4.38" transform="translate(-43.8 -369.976)" fill="#445e53"/>
    <path id="Trazado_55" data-name="Trazado 55" d="M61.46,439.437c5.07-2.76,6.83-4.38,17.49-.18s14.53,6.95,14.53,6.95-15.16,1.51-21.92-.54-11.49-3.83-10.1-6.23" transform="translate(-43.8 -396.237)" fill="#445e53"/>
    <path id="Trazado_56" data-name="Trazado 56" d="M93.85,370.91c6.14-5.18,6.76-7.42,23.19-6.53s27.12,4.15,27.12,4.15-25,6.07-35.24,6.22-16.18-.48-15.07-3.84" transform="translate(-43.8 -251.76)" fill="#445e53"/>
    <path id="Trazado_57" data-name="Trazado 57" d="M100.62,355.861c6.14-5.18,6.76-7.43,23.19-6.53s27.12,4.15,27.12,4.15-25,6.06-35.24,6.22-16.18-.48-15.07-3.84" transform="translate(-43.8 -221.661)" fill="#445e53"/>
    <path id="Trazado_58" data-name="Trazado 58" d="M110.28,341.6c6.15-5.19,3.69-8.83,20.12-7.94s27.11,5.68,27.11,5.68-21.95,5.94-32.15,6.1-16.18-.48-15.08-3.84" transform="translate(-43.8 -191.792)" fill="#445e53"/>
    <path id="Trazado_59" data-name="Trazado 59" d="M118.07,327.408c6.14-5.18,6.76-7.42,23.19-6.53s21.18,6.74,21.18,6.74-19.1,3.47-29.3,3.63-16.18-.48-15.07-3.84" transform="translate(-43.8 -164.758)" fill="#445e53"/>
    <path id="Trazado_60" data-name="Trazado 60" d="M128.75,312.017c6.14-5.18,4.41-6.29,20.84-5.4s20.85,3.91,20.85,3.91-13.77,6.14-24,6.3-18.84-1.45-17.73-4.81" transform="translate(-43.8 -135.977)" fill="#445e53"/>
    <path id="Trazado_61" data-name="Trazado 61" d="M139.27,299.882c5.77-4.86,4.14-5.91,19.55-5.07s19.56,3.66,19.56,3.66-12.91,5.77-22.47,5.92-17.68-1.36-16.64-4.51" transform="translate(-43.8 -111.752)" fill="#445e53"/>
    <path id="Trazado_62" data-name="Trazado 62" d="M152.35,289.83c4.71-4,3.38-4.83,16-4.14s16,3,16,3-10.55,4.71-18.36,4.83-14.45-1.1-13.6-3.68" transform="translate(-43.8 -91.8)" fill="#445e53"/>
    <path id="Trazado_63" data-name="Trazado 63" d="M160.68,279.88c4.71-4,3.38-4.83,16-4.14s16,3,16,3-10.55,4.71-18.37,4.83-14.44-1.1-13.59-3.68" transform="translate(-43.8 -71.9)" fill="#445e53"/>
    <path id="Trazado_64" data-name="Trazado 64" d="M99.2,306.263c4.49,8,3.91,17.52-5.38,32s-11,17.12-11,17.12,3.29-25.53,7.19-35.22c4.49-11.14,4.89-16.47,9.19-13.86" transform="translate(-43.8 -173.833)" fill="#445e53"/>
    <path id="Trazado_65" data-name="Trazado 65" d="M109,295.2c6.63,12.63-11.5,42.2-11.5,42.2s-1.1-19.86,2.31-28.33c4.49-11.15,4.89-16.47,9.19-13.87" transform="translate(-43.8 -144.75)" fill="#445e53"/>
    <path id="Trazado_66" data-name="Trazado 66" d="M117.74,280.97c6.62,12.63-11.5,42.21-11.5,42.21s-1.1-19.87,2.31-28.34c4.48-11.15,4.88-16.47,9.19-13.87" transform="translate(-43.8 -116.3)" fill="#445e53"/>
    <path id="Trazado_67" data-name="Trazado 67" d="M127.22,271.882c6.63,12.63-7.12,41.23-7.12,41.23s.37-17.7.83-26.82c.65-13.07,2-17,6.29-14.41" transform="translate(-43.8 -97.042)" fill="#445e53"/>
    <path id="Trazado_68" data-name="Trazado 68" d="M136.22,259.2c9.48,10.65-1,43.73-1,43.73s-5.87-19-4.61-28.06c1.66-11.9.76-17.16,5.57-15.67" transform="translate(-43.8 -74.677)" fill="#445e53"/>
    <path id="Trazado_69" data-name="Trazado 69" d="M148.42,255.945c7,8.35-.59,34.14-.59,34.14s-4.37-14.86-3.47-21.92c1.19-9.28.52-13.39,4.06-12.22" transform="translate(-43.8 -58.635)" fill="#445e53"/>
    <path id="Trazado_70" data-name="Trazado 70" d="M161.23,247.555c7,8.34-.59,34.13-.59,34.13s-4.37-14.85-3.46-21.91c1.19-9.29.51-13.39,4-12.22" transform="translate(-43.8 -41.845)" fill="#445e53"/>
    <path id="Trazado_71" data-name="Trazado 71" d="M172.09,249.194c7,8.34,3.64,24.14,3.64,24.14s-5.5-8.05-6.77-15.06c-2.35-13-.41-10.26,3.13-9.08" transform="translate(-43.8 -34.254)" fill="#445e53"/>
    <path id="Trazado_72" data-name="Trazado 72" d="M176.5,258.806c10.89.35,20.4,13.41,20.4,13.41s-13.7,1.11-18.35-4.28c-6.12-7.09-5.29-7.28-2.05-9.13" transform="translate(-43.8 -43.916)" fill="#445e53"/>
    <path id="Trazado_73" data-name="Trazado 73" d="M48.91,269.3a1.58,1.58,0,0,1,3.11,0c.1.52,10.31,53.12,45.17,120.52,34.74,67.19,78.35,89.38,78.81,89.56a1.583,1.583,0,1,1-1.4,2.84c-.45-.22-45-22.87-80.19-91-35.12-67.84-45.41-120.84-45.5-121.33a1.47,1.47,0,0,1,0-.59Z" transform="translate(-43.8 -263.176)" fill="#263630"/>
    <path id="Trazado_74" data-name="Trazado 74" d="M43.18,257.567c-.93,11.34-28.18,24.29-28.18,24.29s19.12-33.94,28.19-24.29" transform="translate(-43.8 -50.497)" fill="#445e53"/>
    <path id="Trazado_75" data-name="Trazado 75" d="M44.49,277.094C43.77,285.924,22.55,296,22.55,296s14.88-26.42,21.94-18.91" transform="translate(-43.8 -84.554)" fill="#445e53"/>
    <path id="Trazado_76" data-name="Trazado 76" d="M44.69,233.109c2.19,7.62-33.63,32.79-33.63,32.79s8.7-18.69,17.09-27.07c11.47-11.46,14.39-9.39,16.54-5.72" transform="translate(-43.8 -8.909)" fill="#445e53"/>
    <path id="Trazado_77" data-name="Trazado 77" d="M47.5,217.437c2.21,8.93-17.37,25-35.5,29.91,0,0,18.87-32.1,35.5-29.91" transform="translate(-43.8 22.523)" fill="#445e53"/>
    <path id="Trazado_78" data-name="Trazado 78" d="M50.07,195.473c1.69,10-33.06,35.69-33.06,35.69s9.5-22.25,17.33-28.92,13-10.69,15.73-6.77" transform="translate(-43.8 62.107)" fill="#445e53"/>
    <path id="Trazado_79" data-name="Trazado 79" d="M53.44,175.969c1.17,8.43-3.82,11.25-15.46,23.28s-15.49,16.72-15.49,16.72,8-23,14.51-30.94,11.74-16.57,14.37-13.33" transform="translate(-43.8 100.231)" fill="#445e53"/>
    <path id="Trazado_80" data-name="Trazado 80" d="M51,222.9c7.35-4.28,9.89-6.79,25.44-.59s21.19,10.3,21.19,10.3-22,2.56-31.89-.43S49,226.568,51,222.9" transform="translate(-43.8 34.982)" fill="#445e53"/>
    <path id="Trazado_81" data-name="Trazado 81" d="M49.1,239.786c6.62-3.77,9-6.06,22.07.53s17.76,10.75,17.76,10.75-19.25,1.5-27.61-1.79-14.17-6.07-12.22-9.49" transform="translate(-43.8 -0.346)" fill="#445e53"/>
    <path id="Trazado_82" data-name="Trazado 82" d="M46.8,255.3c6.16-2.38,8.39-4,19.86,2.37s15.46,10,15.46,10-17.42-.52-24.78-3.84-12.47-6-10.54-8.54" transform="translate(-43.8 -33.672)" fill="#445e53"/>
    <path id="Trazado_83" data-name="Trazado 83" d="M43.38,270.927c5.67-2.64,7.67-4.28,18.92,1s15.24,8.49,15.24,8.49-16.49.6-23.66-2.07-12.17-4.91-10.5-7.41" transform="translate(-43.8 -61.727)" fill="#445e53"/>
    <path id="Trazado_84" data-name="Trazado 84" d="M44.71,279.87c5.62-1.31,7.74-2.42,16.91,4.45S73.8,294.86,73.8,294.86s-15-2.55-21-6.31-10.07-6.73-8.09-8.68" transform="translate(-43.8 -86.55)" fill="#445e53"/>
    <path id="Trazado_85" data-name="Trazado 85" d="M55.88,204.4c7.3-3.37,8.49-5.38,24.1-.17S105,215.353,105,215.353s-25.75-.76-35.63-3.3-15.44-4.74-13.49-7.65" transform="translate(-43.8 70.797)" fill="#445e53"/>
    <path id="Trazado_86" data-name="Trazado 86" d="M58.44,188.1c7.3-3.38,8.48-5.38,24.09-.18s25.07,11.17,25.07,11.17-25.76-.76-35.6-3.26-15.49-4.74-13.53-7.69" transform="translate(-43.8 103.372)" fill="#445e53"/>
    <path id="Trazado_87" data-name="Trazado 87" d="M63.64,172.641c7.3-3.38,5.89-7.55,21.5-2.34s24.65,12.63,24.65,12.63-22.74-.07-32.62-2.61-15.48-4.73-13.53-7.68" transform="translate(-43.8 136.429)" fill="#445e53"/>
    <path id="Trazado_88" data-name="Trazado 88" d="M67.76,155.132c7.3-3.38,8.48-5.39,24.09-.18s18.65,12.09,18.65,12.09-19.34-1.69-29.21-4.23-15.49-4.74-13.53-7.68" transform="translate(-43.8 168.388)" fill="#445e53"/>
    <path id="Trazado_89" data-name="Trazado 89" d="M74.52,140.582c7.3-3.38,5.92-4.91,21.53.29s19.08,9.27,19.08,9.27-14.9,2.29-24.77-.25-17.79-6.31-15.84-9.31" transform="translate(-43.8 198.618)" fill="#445e53"/>
    <path id="Trazado_90" data-name="Trazado 90" d="M81.48,126.546c6.85-3.17,5.55-4.6,20.2.28s17.9,8.7,17.9,8.7-14,2.15-23.24-.24-16.69-6-14.86-8.74" transform="translate(-43.8 227.134)" fill="#445e53"/>
    <path id="Trazado_91" data-name="Trazado 91" d="M91.49,114.822c5.59-2.59,4.53-3.77,16.5.22s14.63,7.11,14.63,7.11-11.42,1.76-19-.19-13.62-4.88-12.13-7.14" transform="translate(-43.8 251.868)" fill="#445e53"/>
    <path id="Trazado_92" data-name="Trazado 92" d="M96.89,103.021c5.59-2.59,4.54-3.76,16.5.23s14.61,7.11,14.61,7.11-11.42,1.75-19-.19-13.64-4.89-12.14-7.15" transform="translate(-43.8 275.459)" fill="#445e53"/>
    <path id="Trazado_93" data-name="Trazado 93" d="M57.54,156c2.21,8.94-.85,17.93-13.63,29.41s-15.13,13.6-15.13,13.6,9.92-23.75,16.22-32.06c7.27-9.57,9.06-14.6,12.52-10.95" transform="translate(-43.8 133.377)" fill="#445e53"/>
    <path id="Trazado_94" data-name="Trazado 94" d="M62.25,141.374C65.3,155.3,40,179.034,40,179.034s4.19-19.45,9.71-26.72c7.27-9.57,9.06-14.59,12.53-10.94" transform="translate(-43.8 167.986)" fill="#445e53"/>
    <path id="Trazado_95" data-name="Trazado 95" d="M66.91,125.344c3,13.93-22.24,37.67-22.24,37.67s4.19-19.45,9.71-26.73c7.27-9.57,9.06-14.59,12.53-10.94" transform="translate(-43.8 200.036)" fill="#445e53"/>
    <path id="Trazado_96" data-name="Trazado 96" d="M73.37,113.007c3.06,13.93-17.75,37.88-17.75,37.88s5-17,7.88-25.65c4.07-12.43,6.4-15.88,9.87-12.23" transform="translate(-43.8 224.683)" fill="#445e53"/>
    <path id="Trazado_97" data-name="Trazado 97" d="M79.49,96.575C85.83,109.375,67,138.5,67,138.5s-.64-19.88,3-28.28c4.74-11,5.26-16.35,9.5-13.64" transform="translate(-43.8 252.825)" fill="#445e53"/>
    <path id="Trazado_98" data-name="Trazado 98" d="M87.88,89.956c4.56,9.9-9.58,32.76-9.58,32.76s-.29-15.48,2.44-22c3.6-8.64,4-12.78,7.14-10.71" transform="translate(-43.8 275.004)" fill="#445e53"/>
    <path id="Trazado_99" data-name="Trazado 99" d="M98,78.476c4.55,9.9-9.59,32.76-9.59,32.76s-.29-15.48,2.45-22c3.6-8.64,4-12.78,7.14-10.71" transform="translate(-43.8 297.964)" fill="#445e53"/>
    <path id="Trazado_100" data-name="Trazado 100" d="M106.06,76.655c4.56,9.89-2.86,24.24-2.86,24.24s-3.2-9.24-2.56-16.3c1.17-13.19,2.31-10,5.42-7.93" transform="translate(-43.8 311.545)" fill="#445e53"/>
    <path id="Trazado_101" data-name="Trazado 101" d="M110.33,79.59c10.41,3.22,16.13,18.32,16.13,18.32s-13.5-2.54-16.57-9c-4-8.45-3.18-8.41.44-9.35" transform="translate(-43.8 309.73)" fill="#445e53"/>
    <path id="Trazado_102" data-name="Trazado 102" d="M42.38,94.852a1.58,1.58,0,0,1,3,.82c0,.53-4.07,54,11.75,128.17,15.77,73.93,51.97,106.93,52.33,107.21a1.583,1.583,0,0,1-2.1,2.37C107,333.092,70,299.482,54,224.5c-15.9-74.73-11.82-128.55-11.77-129.09a1.5,1.5,0,0,1,.15-.56Z" transform="translate(-43.8 59.428)" fill="#263630"/>
    <path id="Trazado_103" data-name="Trazado 103" d="M43.24,249.364c18.75,1.81,20.58,18.2,21,22.06s16.1,18.85,17.28,29.45-.35,17.46.84,28.06,10.39,23.24,9.12,46.81,1.11,103.58-24.16,109.9S19.31,409.934,19,389.5s-5.64-34.57-11.64-53.38-11.57-27.35-2.82-44.42c10.76-21,2.29-27.55,13.85-37.62S43.24,249.364,43.24,249.364Z" transform="translate(-43.8 -246.734)" fill="#739169"/>
    <g id="Grupo_3" data-name="Grupo 3" transform="translate(-43.795 1.21)" clip-path="url(#clip-path-4)">
      <path id="Trazado_104" data-name="Trazado 104" d="M110.19,408.26,59.13,383.34l-2.71-21.47,52.13,23.22Z" transform="translate(-14.525 -290.08)" fill="#a2c29b"/>
      <path id="Trazado_105" data-name="Trazado 105" d="M52.39,423.65l50.2,22.81-.14-9.77L50.9,415.93l1.49,7.72" transform="translate(-14.525 -382.34)" fill="#a2c29b"/>
      <path id="Trazado_106" data-name="Trazado 106" d="M40.58,424.19,3.29,457.7l-17.81-26.73s41.13-33,50.31-35.59h0l4.61,27.26h0" transform="translate(-0.005 -367.09)" fill="#a2c29b"/>
      <path id="Trazado_107" data-name="Trazado 107" d="M109.2,303.39,66.66,281.31l5.48,29.37,37.25,25.51Z" transform="translate(-14.525 -137.45)" fill="#a2c29b"/>
      <path id="Trazado_108" data-name="Trazado 108" d="M82.21,292.59l-7.53-56.28L44.17,262.75,54.88,290.9Z" transform="translate(-14.525 -48.85)" fill="#a2c29b"/>
      <path id="Trazado_109" data-name="Trazado 109" d="M63.92,352.48l51.78,22.95-.76-12.54L61.97,337.87l1.95,14.61" transform="translate(-14.525 -233.25)" fill="#a2c29b"/>
      <path id="Trazado_110" data-name="Trazado 110" d="M29.13,367.05l37.46-29.11-3.37-24.55L22.37,348.87Z" transform="translate(-14.525 -200.39)" fill="#a2c29b"/>
      <path id="Trazado_111" data-name="Trazado 111" d="M22.95,406.95l36.18-29.28-.35-20.16-40.2,35.72Z" transform="translate(-14.525 -284.41)" fill="#a2c29b"/>
    </g>
    <path id="Trazado_113" data-name="Trazado 113" d="M28.09,249.484h.19a1.68,1.68,0,0,1,1.9,1.43c6.18,42.82,38,254.1,38.36,256.23a1.69,1.69,0,0,1-3.34.5c-.32-2.16-32.2-213.47-38.35-256.3a1.67,1.67,0,0,1,1.24-1.86Z" transform="translate(-43.8 -271.284)" fill="#445e53"/>
  </g>
</svg>
